<svg xmlns="http://www.w3.org/2000/svg" id="magnifier" enable-background="new 0 0 64 64" viewBox="0 0 64 64">
  <circle cx="32" cy="32" r="32" fill="#80bdff"></circle>
  <path fill="#51b899" d="M37.8,12.3c6,6,6.9,15.2,2.7,22.1c-0.7,1.2-1.6,2.4-2.7,3.4c-1,1-2.2,1.9-3.4,2.7
				c-6.9,4.2-16.1,3.3-22.1-2.7c-7-7-7-18.5,0-25.5C19.3,5.2,30.7,5.2,37.8,12.3z"></path>
  <path fill="#143751" d="M25,44.1c-4.9,0-9.8-1.9-13.5-5.6c-7.4-7.4-7.4-19.5,0-26.9c7.4-7.4,19.5-7.4,26.9,0l0,0l0,0
				c6.2,6.2,7.4,15.8,2.8,23.3c-0.8,1.3-1.8,2.5-2.8,3.6c-1.1,1.1-2.3,2-3.6,2.8C31.8,43.2,28.4,44.1,25,44.1z M25,8
				c-4.4,0-8.7,1.7-12,5c-6.6,6.6-6.6,17.5,0,24.1c5.6,5.6,14.2,6.6,20.9,2.5c1.2-0.7,2.3-1.6,3.2-2.5c1-1,1.8-2,2.5-3.2
				c4.1-6.7,3-15.3-2.5-20.9l0,0C33.8,9.7,29.4,8,25,8z"></path>
  <circle cx="25" cy="25" r="12.6" fill="#f9f9f9"></circle>
  <path fill="#143751" d="M25,38.6c-3.6,0-7-1.4-9.6-4c-2.6-2.6-4-6-4-9.6c0-3.6,1.4-7,4-9.6c5.3-5.3,13.9-5.3,19.2,0
				c2.6,2.6,4,6,4,9.6c0,3.6-1.4,7-4,9.6C32.1,37.2,28.7,38.6,25,38.6z M25,13.4c-3,0-5.9,1.1-8.2,3.4c-2.2,2.2-3.4,5.1-3.4,8.2
				c0,3.1,1.2,6,3.4,8.2c2.2,2.2,5.1,3.4,8.2,3.4c3.1,0,6-1.2,8.2-3.4c2.2-2.2,3.4-5.1,3.4-8.2c0-3.1-1.2-6-3.4-8.2
				C31,14.6,28,13.4,25,13.4z"></path>
  <g>
    <path fill="#fbb044" d="M40.5,34.4l15.3,15.3c1.7,1.7,1.7,4.4,0,6.1c-1.7,1.7-4.4,1.7-6.1,0L34.4,40.5c1.2-0.7,2.4-1.6,3.4-2.7
				C38.8,36.7,39.7,35.6,40.5,34.4z"></path>
    <path fill="#143751" d="M52.7,58c-1.4,0-2.7-0.5-3.7-1.5L32.8,40.3l1.1-0.7c1.2-0.7,2.3-1.6,3.2-2.5c1-1,1.8-2,2.5-3.2l0.7-1.1
				L56.4,49c2.1,2.1,2.1,5.4,0,7.5C55.4,57.5,54.1,58,52.7,58z M36,40.6L50.4,55c1.3,1.3,3.4,1.3,4.7,0c1.3-1.3,1.3-3.4,0-4.7
				L40.6,36c-0.6,0.9-1.4,1.8-2.1,2.5C37.7,39.3,36.9,40,36,40.6z"></path>
  </g>
</svg>
